<svg width="429" height="378" xmlns="http://www.w3.org/2000/svg" xmlns:svg="http://www.w3.org/2000/svg" preserveAspectRatio="xMidYMid meet" version="1.0">
 <metadata>Created by potrace 1.16, written by Peter Selinger 2001-2019</metadata>
 <g class="layer">
  <title>Layer 1</title>
  <g fill="#000000" fill-opacity="0" id="svg_1" opacity="0.95" transform="translate(-89.7953 -68.8191) scale(1.18476 1.21893) translate(89.7953 68.8191) translate(429.991 379.011) matrix(0.12065 0 0 -0.117894 -518.786 -1.19148)">
   <path d="m0,1890l0,-1890l2145,0l2145,0l0,1890l0,1890l-2145,0l-2145,0l0,-1890zm2148,1029c40,-83 72,-155 72,-160c0,-4 -143,-289 -319,-631c-427,-835 -440,-862 -435,-867c2,-2 160,151 352,340c191,189 371,362 399,384c29,22 52,46 53,53c0,7 -18,49 -41,93c-22,44 -39,85 -37,90c2,6 23,-31 48,-80c24,-50 48,-91 53,-91c5,0 27,13 50,29c23,15 65,40 94,54c28,15 54,30 56,34c3,5 -33,86 -78,181c-46,94 -80,172 -77,172c4,0 43,-75 86,-166c44,-91 85,-168 91,-170c6,-3 44,7 84,21c41,14 84,25 95,24c12,0 -17,-11 -64,-25c-47,-14 -90,-30 -96,-37c-9,-9 0,-36 34,-110c40,-86 48,-98 66,-93c49,14 69,15 37,3c-19,-7 -36,-18 -38,-23c-3,-9 250,-541 264,-554c8,-8 50,50 87,120c81,155 88,285 19,378c-30,41 -61,61 -127,84c-36,12 -44,17 -25,18c38,0 126,-48 154,-85c87,-113 68,-284 -52,-469l-44,-68l32,-75c18,-40 38,-78 45,-84c8,-6 30,4 70,34c106,78 187,189 225,306c10,31 18,48 18,39c1,-30 -39,-124 -79,-187c-45,-70 -113,-138 -185,-187l-50,-34l-43,86l-43,85l-77,-72c-79,-74 -119,-105 -127,-97c-2,2 -72,142 -154,311c-140,286 -152,307 -170,297c-37,-20 -283,-273 -428,-443c-80,-92 -147,-166 -150,-163c-9,9 316,372 451,504l137,132l-36,78c-20,42 -43,87 -51,100l-15,23l-42,-32c-23,-18 -219,-208 -434,-423c-216,-215 -393,-386 -393,-381c0,8 53,112 568,1120l234,459l-68,138c-38,76 -73,137 -79,135c-5,-2 -220,-414 -477,-916c-256,-503 -472,-919 -479,-925c-6,-6 38,86 99,204c60,118 273,535 472,925c199,391 366,718 372,728c5,9 12,17 17,17c4,0 40,-68 79,-151z" fill="#000000" id="svg_2" stroke="#f9f7f7" stroke-linecap="round" stroke-width="95"/>
   <path d="m2418,2111c-88,-51 -117,-73 -118,-89c0,-14 88,-192 95,-192c3,0 31,17 63,39c31,21 76,48 100,60c23,12 42,26 42,31c0,22 -91,190 -103,190c-7,0 -42,-17 -79,-39z" fill="#000000" id="svg_3" stroke="#f9f7f7" stroke-linecap="round" stroke-width="95"/>
   <path d="m2540,1907c-80,-46 -129,-81 -133,-92c-6,-15 290,-615 303,-615c6,0 50,37 97,83l86,83l-133,275c-132,272 -147,299 -159,299c-3,0 -31,-15 -61,-33z" fill="#000000" id="svg_4" stroke="#f9f7f7" stroke-linecap="round" stroke-width="95"/>
  </g>
 </g>
</svg>